<svg width="85" height="15" viewBox="0 0 85 15" fill="none" xmlns="http://www.w3.org/2000/svg">
<circle cx="39" cy="8" r="7" fill="#111111"/>
<path d="M0.660511 12V3.27273H4.29972C4.95313 3.27273 5.5 3.36506 5.94034 3.54972C6.38352 3.73437 6.71591 3.9929 6.9375 4.32528C7.16193 4.65767 7.27415 5.04261 7.27415 5.48011C7.27415 5.8125 7.20455 6.10938 7.06534 6.37074C6.92614 6.62926 6.73438 6.84375 6.49006 7.0142C6.24574 7.18466 5.96307 7.30398 5.64205 7.37216V7.45739C5.99432 7.47443 6.3196 7.5696 6.6179 7.7429C6.91903 7.91619 7.16051 8.15767 7.34233 8.46733C7.52415 8.77415 7.61506 9.13778 7.61506 9.55824C7.61506 10.027 7.49574 10.446 7.2571 10.8153C7.01847 11.1818 6.6733 11.4716 6.22159 11.6847C5.76989 11.8949 5.22159 12 4.5767 12H0.660511ZM2.76989 10.2997H4.07386C4.53125 10.2997 4.8679 10.2131 5.08381 10.0398C5.30256 9.86648 5.41193 9.625 5.41193 9.31534C5.41193 9.09091 5.35938 8.89773 5.25426 8.7358C5.14915 8.57102 5 8.4446 4.80682 8.35653C4.61364 8.26562 4.3821 8.22017 4.11222 8.22017H2.76989V10.2997ZM2.76989 6.8608H3.9375C4.16761 6.8608 4.37216 6.82244 4.55114 6.74574C4.73011 6.66903 4.86932 6.55824 4.96875 6.41335C5.07102 6.26847 5.12216 6.09375 5.12216 5.8892C5.12216 5.59659 5.01847 5.36648 4.81108 5.19886C4.60369 5.03125 4.32386 4.94744 3.97159 4.94744H2.76989V6.8608ZM10.997 12H8.73L11.6746 3.27273H14.4828L17.4274 12H15.1604L13.1107 5.47159H13.0425L10.997 12ZM10.6945 8.56534H15.4331V10.1676H10.6945V8.56534ZM26.2746 3.27273V12H24.4849L21.0118 6.96307H20.9564V12H18.8471V3.27273H20.6624L24.0971 8.30114H24.1695V3.27273H26.2746ZM30.1904 3.27273V12H28.081V3.27273H30.1904ZM47.7197 12V3.27273H49.8291V6.77557H53.268V3.27273H55.3731V12H53.268V8.4929H49.8291V12H47.7197ZM65.4135 7.63636C65.4135 8.59659 65.2288 9.41051 64.8595 10.0781C64.4902 10.7457 63.9902 11.2528 63.3595 11.5994C62.7317 11.946 62.0271 12.1193 61.2459 12.1193C60.4618 12.1193 59.7558 11.9446 59.128 11.5952C58.5002 11.2457 58.0016 10.7386 57.6323 10.0739C57.2658 9.40625 57.0825 8.59375 57.0825 7.63636C57.0825 6.67614 57.2658 5.86222 57.6323 5.1946C58.0016 4.52699 58.5002 4.01989 59.128 3.6733C59.7558 3.3267 60.4618 3.15341 61.2459 3.15341C62.0271 3.15341 62.7317 3.3267 63.3595 3.6733C63.9902 4.01989 64.4902 4.52699 64.8595 5.1946C65.2288 5.86222 65.4135 6.67614 65.4135 7.63636ZM63.2573 7.63636C63.2573 7.06818 63.1763 6.58807 63.0144 6.19602C62.8553 5.80398 62.6252 5.5071 62.324 5.3054C62.0257 5.10369 61.6663 5.00284 61.2459 5.00284C60.8283 5.00284 60.4689 5.10369 60.1678 5.3054C59.8666 5.5071 59.6351 5.80398 59.4732 6.19602C59.3141 6.58807 59.2345 7.06818 59.2345 7.63636C59.2345 8.20455 59.3141 8.68466 59.4732 9.0767C59.6351 9.46875 59.8666 9.76562 60.1678 9.96733C60.4689 10.169 60.8283 10.2699 61.2459 10.2699C61.6663 10.2699 62.0257 10.169 62.324 9.96733C62.6252 9.76562 62.8553 9.46875 63.0144 9.0767C63.1763 8.68466 63.2573 8.20455 63.2573 7.63636ZM67.125 12V3.27273H69.2344V10.2869H72.8651V12H67.125ZM76.5465 3.27273V12H74.4371V3.27273H76.5465ZM78.3507 12V3.27273H80.46V10.2869H84.0907V12H78.3507Z" fill="black"/>
<path d="M42.9746 6.43466H40.8439C40.8155 6.21591 40.7572 6.01847 40.6692 5.84233C40.5811 5.66619 40.4646 5.51562 40.3197 5.39062C40.1749 5.26562 40.003 5.17045 39.8041 5.10511C39.6081 5.03693 39.3908 5.00284 39.1521 5.00284C38.7288 5.00284 38.3638 5.10653 38.057 5.31392C37.753 5.52131 37.5186 5.82102 37.3538 6.21307C37.1919 6.60511 37.1109 7.07955 37.1109 7.63636C37.1109 8.21591 37.1933 8.7017 37.3581 9.09375C37.5257 9.48295 37.7601 9.77699 38.0612 9.97585C38.3652 10.1719 38.7246 10.2699 39.1393 10.2699C39.3723 10.2699 39.584 10.2401 39.7743 10.1804C39.9675 10.1207 40.1365 10.0341 40.2814 9.92045C40.4291 9.80398 40.5499 9.66335 40.6436 9.49858C40.7402 9.33097 40.807 9.14205 40.8439 8.93182L42.9746 8.9446C42.9376 9.33097 42.8254 9.71165 42.6379 10.0866C42.4533 10.4616 42.199 10.804 41.8751 11.1136C41.5513 11.4205 41.1564 11.6648 40.6905 11.8466C40.2274 12.0284 39.6962 12.1193 39.0967 12.1193C38.307 12.1193 37.5996 11.946 36.9746 11.5994C36.3524 11.25 35.8609 10.7415 35.5001 10.0739C35.1393 9.40625 34.959 8.59375 34.959 7.63636C34.959 6.67614 35.1422 5.86222 35.5087 5.1946C35.8751 4.52699 36.3709 4.01989 36.9959 3.6733C37.6209 3.3267 38.3212 3.15341 39.0967 3.15341C39.6251 3.15341 40.1138 3.22727 40.5626 3.375C41.0115 3.51989 41.4064 3.73295 41.7473 4.0142C42.0882 4.29261 42.3652 4.63494 42.5783 5.04119C42.7913 5.44744 42.9234 5.91193 42.9746 6.43466Z" fill="white"/>
</svg>
